# Blender v2.83.0 OBJ File: ''
# www.blender.org
mtllib gorgomite.mtl
o Body
v -0.511997 0.716796 -0.511997
v -0.511997 0.204799 -0.511997
v -0.511997 0.716796 0.511997
v -0.511997 0.204799 0.511997
v 0.511997 0.716796 0.511997
v 0.511997 0.204799 0.511997
v 0.511997 0.716796 -0.511997
v 0.511997 0.204799 -0.511997
vt 0.000244 0.843506
vt 0.000244 0.765869
vt 0.156006 0.843506
vt 0.156006 0.765869
vt 0.312744 0.843506
vt 0.312744 0.765869
vt 0.468506 0.843506
vt 0.468506 0.765869
vt 0.312256 0.843994
vt 0.312256 0.999756
vt 0.156494 0.843994
vt 0.156494 0.999756
vt 0.468506 0.999756
vt 0.468506 0.843994
vt 0.312744 0.999756
vt 0.312744 0.843994
vt 0.468994 0.843506
vt 0.468994 0.765869
vt 0.624756 0.843506
vt 0.624756 0.765869
vt 0.156494 0.843506
vt 0.156494 0.765869
vt 0.312256 0.843506
vt 0.312256 0.765869
vn -1.0000 0.0000 0.0000
vn 1.0000 0.0000 -0.0000
vn -0.0000 1.0000 -0.0000
vn 0.0000 -1.0000 0.0000
vn -0.0000 -0.0000 -1.0000
vn 0.0000 0.0000 1.0000
usemtl 0.024
s 1
f 1/1/1 2/2/1 3/3/1
f 2/2/1 4/4/1 3/3/1
f 5/5/2 6/6/2 7/7/2
f 6/6/2 8/8/2 7/7/2
f 5/9/3 7/10/3 3/11/3
f 7/10/3 1/12/3 3/11/3
f 8/13/4 6/14/4 2/15/4
f 6/14/4 4/16/4 2/15/4
f 7/17/5 8/18/5 1/19/5
f 8/18/5 2/20/5 1/19/5
f 3/21/6 4/22/6 5/23/6
f 4/22/6 6/24/6 5/23/6
o FrontLeftLeg
v 0.307198 0.819196 0.204799
v 0.307198 0.000000 0.204799
v 0.307198 0.819196 0.614397
v 0.307198 0.000000 0.614397
v 0.716796 0.819196 0.614397
v 0.716796 0.000000 0.614397
v 0.716796 0.819196 0.204799
v 0.716796 0.000000 0.204799
vt 0.250244 0.499756
vt 0.250244 0.375244
vt 0.312256 0.499756
vt 0.312256 0.375244
vt 0.375244 0.499756
vt 0.375244 0.375244
vt 0.437256 0.499756
vt 0.437256 0.375244
vt 0.374756 0.500244
vt 0.374756 0.562256
vt 0.312744 0.500244
vt 0.312744 0.562256
vt 0.437256 0.562256
vt 0.437256 0.500244
vt 0.375244 0.562256
vt 0.375244 0.500244
vt 0.437744 0.499756
vt 0.437744 0.375244
vt 0.499756 0.499756
vt 0.499756 0.375244
vt 0.312744 0.499756
vt 0.312744 0.375244
vt 0.374756 0.499756
vt 0.374756 0.375244
vn -1.0000 -0.0000 0.0000
vn 1.0000 0.0000 -0.0000
vn -0.0000 1.0000 0.0000
vn 0.0000 -1.0000 0.0000
vn -0.0000 -0.0000 -1.0000
vn 0.0000 0.0000 1.0000
usemtl 0.024
s 1
f 9/25/7 10/26/7 11/27/7
f 10/26/7 12/28/7 11/27/7
f 13/29/8 14/30/8 15/31/8
f 14/30/8 16/32/8 15/31/8
f 13/33/9 15/34/9 11/35/9
f 15/34/9 9/36/9 11/35/9
f 16/37/10 14/38/10 10/39/10
f 14/38/10 12/40/10 10/39/10
f 15/41/11 16/42/11 9/43/11
f 16/42/11 10/44/11 9/43/11
f 11/45/12 12/46/12 13/47/12
f 12/46/12 14/48/12 13/47/12
o BackLeftLeg
v 0.307198 0.819196 -0.716796
v 0.307198 -0.000000 -0.716796
v 0.307198 0.819196 -0.307199
v 0.307198 -0.000000 -0.307198
v 0.716796 0.819196 -0.307199
v 0.716796 -0.000000 -0.307198
v 0.716796 0.819196 -0.716796
v 0.716796 -0.000000 -0.716796
vt 0.000244 0.702881
vt 0.000244 0.578369
vt 0.062256 0.702881
vt 0.062256 0.578369
vt 0.125244 0.702881
vt 0.125244 0.578369
vt 0.187256 0.702881
vt 0.187256 0.578369
vt 0.124756 0.703369
vt 0.124756 0.765381
vt 0.062744 0.703369
vt 0.062744 0.765381
vt 0.187256 0.765381
vt 0.187256 0.703369
vt 0.125244 0.765381
vt 0.125244 0.703369
vt 0.187744 0.702881
vt 0.187744 0.578369
vt 0.249756 0.702881
vt 0.249756 0.578369
vt 0.062744 0.702881
vt 0.062744 0.578369
vt 0.124756 0.702881
vt 0.124756 0.578369
vn -1.0000 0.0000 0.0000
vn 1.0000 -0.0000 -0.0000
vn 0.0000 1.0000 0.0000
vn 0.0000 -1.0000 0.0000
vn 0.0000 -0.0000 -1.0000
vn 0.0000 0.0000 1.0000
usemtl 0.024
s 1
f 17/49/13 18/50/13 19/51/13
f 18/50/13 20/52/13 19/51/13
f 21/53/14 22/54/14 23/55/14
f 22/54/14 24/56/14 23/55/14
f 21/57/15 23/58/15 19/59/15
f 23/58/15 17/60/15 19/59/15
f 24/61/16 22/62/16 18/63/16
f 22/62/16 20/64/16 18/63/16
f 23/65/17 24/66/17 17/67/17
f 24/66/17 18/68/17 17/67/17
f 19/69/18 20/70/18 21/71/18
f 20/70/18 22/72/18 21/71/18
o FrontRightLeg
v -0.716796 0.819196 0.204799
v -0.716796 0.000000 0.204799
v -0.716796 0.819196 0.614397
v -0.716796 0.000000 0.614397
v -0.307198 0.819196 0.614397
v -0.307198 0.000000 0.614397
v -0.307198 0.819196 0.204799
v -0.307198 0.000000 0.204799
vt 0.000244 0.515381
vt 0.000244 0.390869
vt 0.062256 0.515381
vt 0.062256 0.390869
vt 0.125244 0.515381
vt 0.125244 0.390869
vt 0.187256 0.515381
vt 0.187256 0.390869
vt 0.124756 0.515869
vt 0.124756 0.577881
vt 0.062744 0.515869
vt 0.062744 0.577881
vt 0.187256 0.577881
vt 0.187256 0.515869
vt 0.125244 0.577881
vt 0.125244 0.515869
vt 0.187744 0.515381
vt 0.187744 0.390869
vt 0.249756 0.515381
vt 0.249756 0.390869
vt 0.062744 0.515381
vt 0.062744 0.390869
vt 0.124756 0.515381
vt 0.124756 0.390869
vn -1.0000 0.0000 0.0000
vn 1.0000 -0.0000 -0.0000
vn -0.0000 1.0000 0.0000
vn 0.0000 -1.0000 0.0000
vn -0.0000 -0.0000 -1.0000
vn 0.0000 0.0000 1.0000
usemtl 0.024
s 1
f 25/73/19 26/74/19 27/75/19
f 26/74/19 28/76/19 27/75/19
f 29/77/20 30/78/20 31/79/20
f 30/78/20 32/80/20 31/79/20
f 29/81/21 31/82/21 27/83/21
f 31/82/21 25/84/21 27/83/21
f 32/85/22 30/86/22 26/87/22
f 30/86/22 28/88/22 26/87/22
f 31/89/23 32/90/23 25/91/23
f 32/90/23 26/92/23 25/91/23
f 27/93/24 28/94/24 29/95/24
f 28/94/24 30/96/24 29/95/24
o BackRightLeg
v -0.716796 0.819196 -0.716796
v -0.716796 -0.000000 -0.716796
v -0.716796 0.819196 -0.307198
v -0.716796 -0.000000 -0.307198
v -0.307198 0.819196 -0.307198
v -0.307198 -0.000000 -0.307198
v -0.307198 0.819196 -0.716796
v -0.307198 -0.000000 -0.716796
vt 0.250244 0.687256
vt 0.250244 0.562744
vt 0.312256 0.687256
vt 0.312256 0.562744
vt 0.375244 0.687256
vt 0.375244 0.562744
vt 0.437256 0.687256
vt 0.437256 0.562744
vt 0.374756 0.687744
vt 0.374756 0.749756
vt 0.312744 0.687744
vt 0.312744 0.749756
vt 0.437256 0.749756
vt 0.437256 0.687744
vt 0.375244 0.749756
vt 0.375244 0.687744
vt 0.437744 0.687256
vt 0.437744 0.562744
vt 0.499756 0.687256
vt 0.499756 0.562744
vt 0.312744 0.687256
vt 0.312744 0.562744
vt 0.374756 0.687256
vt 0.374756 0.562744
vn -1.0000 0.0000 0.0000
vn 1.0000 0.0000 -0.0000
vn 0.0000 1.0000 0.0000
vn 0.0000 -1.0000 0.0000
vn 0.0000 -0.0000 -1.0000
vn 0.0000 0.0000 1.0000
usemtl 0.024
s 1
f 33/97/25 34/98/25 35/99/25
f 34/98/25 36/100/25 35/99/25
f 37/101/26 38/102/26 39/103/26
f 38/102/26 40/104/26 39/103/26
f 37/105/27 39/106/27 35/107/27
f 39/106/27 33/108/27 35/107/27
f 40/109/28 38/110/28 34/111/28
f 38/110/28 36/112/28 34/111/28
f 39/113/29 40/114/29 33/115/29
f 40/114/29 34/116/29 33/115/29
f 35/117/30 36/118/30 37/119/30
f 36/118/30 38/120/30 37/119/30
